<?xml version="1.0" encoding="utf-8"?>
<!-- Generator: Adobe Illustrator 24.0.0, SVG Export Plug-In . SVG Version: 6.00 Build 0)  -->
<svg version="1.1" id="Layer_1" xmlns="http://www.w3.org/2000/svg" xmlns:xlink="http://www.w3.org/1999/xlink" x="0px" y="0px"
	 viewBox="0 0 200 200" style="enable-background:new 0 0 200 200;" xml:space="preserve">
<style type="text/css">
	.st0{clip-path:url(#SVGID_3_);}
	.st1{clip-path:url(#SVGID_4_);}
	.st2{clip-path:url(#SVGID_7_);}
	.st3{clip-path:url(#SVGID_8_);fill:#FFFFFF;}
	.st4{clip-path:url(#SVGID_11_);}
	.st5{clip-path:url(#SVGID_12_);fill:#FFFFFF;}
</style>
<g>
	<defs>
		<rect id="SVGID_1_" width="200" height="200"/>
	</defs>
	<defs>
		<path id="SVGID_2_" d="M100,200c55.23,0,100-44.77,100-100S155.23,0,100,0S0,44.77,0,100S44.77,200,100,200L100,200z M100,200"/>
	</defs>
	<clipPath id="SVGID_3_">
		<use xlink:href="#SVGID_1_"  style="overflow:visible;"/>
	</clipPath>
	<clipPath id="SVGID_4_" class="st0">
		<use xlink:href="#SVGID_2_"  style="overflow:visible;"/>
	</clipPath>
	<rect x="-10" y="-10" class="st1" width="220" height="220"/>
</g>
<g>
	<defs>
		<rect id="SVGID_5_" width="200" height="200"/>
	</defs>
	<defs>
		<path id="SVGID_6_" d="M55.88,52.87v34.02c5.18-6.17,11.38-9.28,18.58-9.28c3.71,0,7.03,0.71,10.01,2.11
			c2.99,1.4,5.22,3.19,6.73,5.36c1.52,2.2,2.54,4.6,3.09,7.25c0.55,2.64,0.83,6.74,0.83,12.31v36.37H79.03v-32.76
			c0-6.5-0.29-10.62-0.9-12.37c-0.61-1.76-1.69-3.15-3.23-4.16c-1.55-1.05-3.48-1.56-5.81-1.56c-2.66,0-5.06,0.67-7.14,1.99
			c-2.12,1.33-3.65,3.33-4.62,5.99c-0.98,2.67-1.47,6.6-1.45,11.82l-0.02,31.06H39.79V52.87H55.88"/>
	</defs>
	<clipPath id="SVGID_7_">
		<use xlink:href="#SVGID_5_"  style="overflow:visible;"/>
	</clipPath>
	<clipPath id="SVGID_8_" class="st2">
		<use xlink:href="#SVGID_6_"  style="overflow:visible;"/>
	</clipPath>
	<rect x="29.79" y="42.87" class="st3" width="75.33" height="108.14"/>
</g>
<g>
	<defs>
		<rect id="SVGID_9_" width="200" height="200"/>
	</defs>
	<defs>
		<path id="SVGID_10_" d="M119.24,52.87v34.02c5.18-6.17,11.38-9.28,18.58-9.28c3.69,0,7.04,0.71,10.02,2.11
			c2.97,1.4,5.21,3.19,6.71,5.36c1.52,2.2,2.55,4.6,3.09,7.25c0.55,2.64,0.83,6.74,0.83,12.31v36.37H142.4v-32.76
			c0-6.5-0.3-10.62-0.92-12.37c-0.61-1.76-1.68-3.15-3.24-4.16c-1.53-1.05-3.48-1.56-5.81-1.56c-2.66,0-5.05,0.67-7.14,1.99
			c-2.1,1.33-3.63,3.33-4.61,5.99c-0.96,2.67-1.45,6.6-1.45,11.82v31.06h-16.07V52.87H119.24"/>
	</defs>
	<clipPath id="SVGID_11_">
		<use xlink:href="#SVGID_9_"  style="overflow:visible;"/>
	</clipPath>
	<clipPath id="SVGID_12_" class="st4">
		<use xlink:href="#SVGID_10_"  style="overflow:visible;"/>
	</clipPath>
	<rect x="93.16" y="42.87" class="st5" width="75.31" height="108.14"/>
</g>
</svg>
